<?xml version="1.0" encoding="UTF-8"?>
<svg width="76px" height="28px" viewBox="0 0 76 28" version="1.1" xmlns="http://www.w3.org/2000/svg" xmlns:xlink="http://www.w3.org/1999/xlink">
    <title>编组 2备份 2</title>
    <defs>
        <linearGradient x1="73.9688942%" y1="100%" x2="27.6049156%" y2="0%" id="linearGradient-1">
            <stop stop-color="#02A4EF" offset="0%"></stop>
            <stop stop-color="#2DFFC4" offset="100%"></stop>
        </linearGradient>
        <linearGradient x1="70.2319781%" y1="100%" x2="31.0964639%" y2="0%" id="linearGradient-2">
            <stop stop-color="#02A4EF" offset="0%"></stop>
            <stop stop-color="#2DFFC4" offset="100%"></stop>
        </linearGradient>
        <polygon id="path-3" points="0 0 44.6897622 0 44.6897622 27.4907394 0 27.4907394"></polygon>
    </defs>
    <g id="1.0" stroke="none" stroke-width="1" fill="none" fill-rule="evenodd">
        <g id="编组备份-4">
            <path d="M57.0790396,12.5903748 C57.0790396,12.5903748 56.7253744,13.650673 56.3590783,15.1871531 L56.2264538,16.5769691 C55.8475268,20.685466 57.9379409,21.8657621 62.3713869,21.8790952 L61.3609149,27.4916918 L61.2851295,27.8973987 C60.5146446,27.9615245 59.6999515,27.9996191 58.8473657,27.9996191 C49.4499757,27.9996191 45.8943772,23.3076407 47.7637505,14.6347821 L47.9090058,13.9744767 C49.6583855,5.85970323 55.8412114,0.761383013 63.7481551,0.761383013 C64.6070563,0.761383013 65.4028031,0.805826652 66.1417108,0.895348837 C66.1417108,0.895348837 62.400438,3.68069513 61.2769194,4.58988499 C59.0235668,6.41461379 58.2789752,8.81266553 57.0853551,12.5903748 L57.0790396,12.5903748 Z" id="Fill-1" fill="url(#linearGradient-1)" opacity="0.503627232"></path>
            <path d="M67.2873334,13.1304285 L62.8204155,13.1304285 C60.723686,13.1304285 58.7172674,15.187534 58.7172674,15.187534 C59.0835635,13.6510539 59.4372288,12.5907557 59.4372288,12.5907557 L59.4435442,12.5907557 C60.6371643,8.81304648 61.9823552,6.40039183 64.8748314,6.47721583 C68.8409342,6.58451547 68.1146574,9.3019265 67.2873334,13.1304285 M66.1063442,0.763033777 C58.1994005,0.763033777 52.0165747,5.86071908 50.2671949,13.9748576 L50.1219396,14.6351631 C48.2525663,23.3080216 51.8081648,28 61.2055548,28 C66.0810824,28 69.6177346,26.8254181 71.8723503,25.6571854 L74.2974833,19.8611 C72.0681293,20.6731488 67.912563,21.8794761 64.7864151,21.8794761 C60.3150763,21.8794761 58.2057159,20.7055292 58.584643,16.5786199 L74.9100819,16.5786199 L75.3963716,14.3310416 C77.2594294,5.7089758 74.9858673,0.763033777 66.1063442,0.763033777" id="Fill-3" fill="#23232F"></path>
            <path d="M17.4874818,0.742907158 L12.6814242,27.4916283 L5.07130657,27.4916283 L9.08793295,8.88180713 C9.27108101,7.96182382 4.25029804,8.85069659 0,12.2474604 L0.66943773,8.81895113 C2.74090542,5.38980699 4.75553406,2.73652179 9.29634281,0.945443167 C12.1635572,-0.191044153 15.6560012,-0.355485615 17.4874818,0.742907158" id="Fill-5" fill="url(#linearGradient-2)" opacity="0.501348586"></path>
            <g id="编组" transform="translate(2.928916, 0.000000)">
                <mask id="mask-4" fill="white">
                    <use xlink:href="#path-3"></use>
                </mask>
                <g id="Clip-8"></g>
                <path d="M41.1855774,22.7911421 L44.4089833,7.85363531 C45.5318703,2.65055509 43.2178893,0.763605195 38.7004478,0.763605195 C35.5174608,0.763605195 33.3815755,2.87658274 31.1711679,5.39272757 L31.1339068,5.17114429 C30.9153922,2.99277111 28.5932011,0.763605195 25.5643112,0.763605195 C22.1242854,0.763605195 20.3351184,2.83277401 18.6053165,4.96733846 L18.233968,5.49812248 L18.2099693,5.48415448 L18.5926856,3.83656532 C19.7705171,-0.238281392 13.7714709,-0.827477053 9.2906589,0.944554294 C4.75237633,2.73880746 2.73901079,5.39336248 0.66943773,8.82187171 L0,12.2478413 C4.24398259,8.84980771 9.26729174,7.96410949 9.08351214,8.88536262 L5.06878039,27.4907394 L13.8472563,27.4907394 L17.9750346,8.36346733 C19.0208731,7.73173276 19.8273561,7.44729347 20.7778314,7.49618148 C22.4185854,7.58062439 22.4571096,8.26124696 22.0169228,10.3018449 L18.3072273,27.4907394 L27.0351796,27.4907394 L31.0309649,8.97551972 C31.0638053,8.82250662 31.0998034,8.51648043 31.1111712,8.36346733 C32.2195327,7.6720513 32.8068696,7.50824475 33.268529,7.49618148 C35.3842048,7.44348402 35.5938778,8.26124696 35.1530593,10.3018449 L31.4439954,27.4907394 L36.1919509,27.4907394 L40.1713161,27.4907394 L42.7915965,27.4907394 C42.7915965,27.4907394 40.3790944,26.5282172 41.1855774,22.7911421" id="Fill-7" fill="#23232F" mask="url(#mask-4)"></path>
            </g>
        </g>
    </g>
</svg>