<svg width="36" height="34" viewBox="0 0 36 34" fill="none" xmlns="http://www.w3.org/2000/svg">
    <path d="M0 8.24242C0 3.69026 3.87685 0 8.65918 0H27.0599C31.8423 0 35.7191 3.69026 35.7191 8.24242V25.7576C35.7191 30.3097 31.8423 34 27.0599 34H8.65918C3.87685 34 0 30.3097 0 25.7576V8.24242Z"
          fill="url(#paint0_linear_2038:6546)"></path>
    <g clip-path="url(#clip0_2038:6546)">
        <path d="M27.3146 21L9.45508 17.448V12L27.3146 15.552V21Z" fill="url(#paint1_linear_2038:6546)"></path>
        <g filter="url(#filter0_b_2038:6546)">
            <path d="M21.7189 12.9466L9.45508 18V12.3586L27.3146 5C27.3146 8.43196 25.1219 11.5453 21.7189 12.9466Z"
                  fill="url(#paint2_linear_2038:6546)"></path>
        </g>
        <g filter="url(#filter1_b_2038:6546)">
            <path d="M15.0508 21.0534L27.3146 16V21.6414L9.45508 29C9.45508 25.568 11.6449 22.4547 15.0508 21.0534Z"
                  fill="url(#paint3_linear_2038:6546)"></path>
        </g>
    </g>
    <defs>
        <filter id="filter0_b_2038:6546" x="6.93656" y="2.48148" width="22.8965" height="18.037"
                filterUnits="userSpaceOnUse" color-interpolation-filters="sRGB">
            <feFlood flood-opacity="0" result="BackgroundImageFix"></feFlood>
            <feGaussianBlur in="BackgroundImage" stdDeviation="1.25926"></feGaussianBlur>
            <feComposite in2="SourceAlpha" operator="in" result="effect1_backgroundBlur_2038:6546"></feComposite>
            <feBlend mode="normal" in="SourceGraphic" in2="effect1_backgroundBlur_2038:6546" result="shape"></feBlend>
        </filter>
        <filter id="filter1_b_2038:6546" x="6.93656" y="13.4815" width="22.8965" height="18.037"
                filterUnits="userSpaceOnUse" color-interpolation-filters="sRGB">
            <feFlood flood-opacity="0" result="BackgroundImageFix"></feFlood>
            <feGaussianBlur in="BackgroundImage" stdDeviation="1.25926"></feGaussianBlur>
            <feComposite in2="SourceAlpha" operator="in" result="effect1_backgroundBlur_2038:6546"></feComposite>
            <feBlend mode="normal" in="SourceGraphic" in2="effect1_backgroundBlur_2038:6546" result="shape"></feBlend>
        </filter>
        <linearGradient id="paint0_linear_2038:6546" x1="0" y1="34" x2="35.7191" y2="34" gradientUnits="userSpaceOnUse">
            <stop stop-color="#5A1659"></stop>
            <stop offset="0.677811" stop-color="#B5507F"></stop>
            <stop offset="1" stop-color="#DD7F79"></stop>
        </linearGradient>
        <linearGradient id="paint1_linear_2038:6546" x1="26.3224" y1="13.6942" x2="12.8867" y2="24.3171"
                        gradientUnits="userSpaceOnUse">
            <stop stop-color="white"></stop>
            <stop offset="1" stop-color="white" stop-opacity="0.5"></stop>
        </linearGradient>
        <linearGradient id="paint2_linear_2038:6546" x1="26.3224" y1="7.44711" x2="9.45411" y2="15.6544"
                        gradientUnits="userSpaceOnUse">
            <stop stop-color="white"></stop>
            <stop offset="1" stop-color="white" stop-opacity="0.1"></stop>
        </linearGradient>
        <linearGradient id="paint3_linear_2038:6546" x1="9.12435" y1="27.2431" x2="28.1786" y2="16.689"
                        gradientUnits="userSpaceOnUse">
            <stop stop-color="white"></stop>
            <stop offset="1" stop-color="white" stop-opacity="0.1"></stop>
        </linearGradient>
        <clipPath id="clip0_2038:6546">
            <rect width="17.8596" height="24" fill="white" transform="translate(9.45508 5)"></rect>
        </clipPath>
    </defs>
</svg>

