<svg width="14" height="24" viewBox="0 0 14 24" fill="none" xmlns="http://www.w3.org/2000/svg">
<path d="M5.31646 13.3714C4.80451 12.9203 4.01982 12.1479 4.16594 12C4.31206 11.8521 5.44307 10.6286 6.20253 9.94286L13.4684 2.91429C14.1772 2.22857 14.1772 1.2 13.4684 0.514286C12.7595 -0.171429 11.6962 -0.171429 10.9873 0.514286L0.531646 10.6286C0.177215 10.9714 0 11.4857 0 12C0 12.5143 0 13.0286 0.531646 13.3714L10.9873 23.4857C11.6962 24.1714 12.7595 24.1714 13.4684 23.4857C14.1772 22.8 14.1772 21.7714 13.4684 21.0857L5.31646 13.3714Z" fill="#9C9CA4"/>
</svg>
