<svg width="38" height="30" viewBox="0 0 38 30" fill="none" xmlns="http://www.w3.org/2000/svg">
<path fill-rule="evenodd" clip-rule="evenodd" d="M35.337 0H2.65648C1.18791 0 0 1.19214 0 2.66594V27.9236C0 29.0699 0.926829 30 2.06905 30H35.931C37.0732 30 38 29.0699 38 27.9236V2.66594C38 1.19214 36.8056 0 35.337 0ZM34.3188 27.9105H3.26348V8.69214H34.3188V27.9105ZM5.09103 6.28821C6.17246 6.28821 7.04912 5.40842 7.04912 4.32314C7.04912 3.23787 6.17246 2.35808 5.09103 2.35808C4.00961 2.35808 3.13294 3.23787 3.13294 4.32314C3.13294 5.40842 4.00961 6.28821 5.09103 6.28821ZM12.5318 4.32314C12.5318 5.40842 11.6551 6.28821 10.5737 6.28821C9.49226 6.28821 8.6156 5.40842 8.6156 4.32314C8.6156 3.23787 9.49226 2.35808 10.5737 2.35808C11.6551 2.35808 12.5318 3.23787 12.5318 4.32314ZM16.0563 6.28821C17.1378 6.28821 18.0144 5.40842 18.0144 4.32314C18.0144 3.23787 17.1378 2.35808 16.0563 2.35808C14.9749 2.35808 14.0982 3.23787 14.0982 4.32314C14.0982 5.40842 14.9749 6.28821 16.0563 6.28821Z" fill="#9C9CA4"/>
</svg>
