<svg width="14" height="14" viewBox="0 0 14 14" fill="none" xmlns="http://www.w3.org/2000/svg">
<path fill-rule="evenodd" clip-rule="evenodd" d="M12.0908 0.353553C12.286 0.158291 12.6026 0.158291 12.7979 0.353553L13.6463 1.202C13.8416 1.39726 13.8416 1.71385 13.6463 1.90911L1.909 13.6464C1.71374 13.8417 1.39716 13.8417 1.20189 13.6464L0.353445 12.798C0.158183 12.6027 0.158183 12.2862 0.353445 12.0909L12.0908 0.353553Z" fill="#9C9CA4"/>
<path fill-rule="evenodd" clip-rule="evenodd" d="M1.90922 0.353553C1.71395 0.158291 1.39737 0.158291 1.20211 0.353553L0.353662 1.202C0.1584 1.39726 0.1584 1.71385 0.353662 1.90911L12.091 13.6464C12.2863 13.8417 12.6028 13.8417 12.7981 13.6464L13.6466 12.798C13.8418 12.6027 13.8418 12.2862 13.6466 12.0909L1.90922 0.353553Z" fill="#9C9CA4"/>
</svg>
