<svg width="18" height="12" viewBox="0 0 18 12" fill="none" xmlns="http://www.w3.org/2000/svg">
<path fill-rule="evenodd" clip-rule="evenodd" d="M11.2217 0C10.2571 0 9.47526 0.771714 9.47526 1.72374C9.47526 2.67573 10.2571 3.44748 11.2217 3.44748C11.9633 3.44748 12.5965 2.99094 12.8498 2.3472C14.8862 2.42081 16.5199 4.07865 16.5199 6.10626C16.5199 8.18058 14.8101 9.86819 12.7085 9.86819C11.5914 9.86819 10.6187 9.33851 9.35094 8.03994C8.86334 7.54038 8.37153 6.97012 7.85088 6.36635C7.50668 5.96721 7.21477 5.57012 6.86843 5.16207C6.55636 4.69269 6.0188 4.38248 5.40753 4.38248C4.44303 4.38248 3.66113 5.15424 3.66113 6.10626C3.66113 7.05829 4.44303 7.83001 5.40753 7.83001C5.99664 7.83001 6.51725 7.5418 6.83353 7.10079C6.85334 7.12412 6.87312 7.14749 6.89328 7.17085C7.42689 7.7896 7.93089 8.37403 8.44542 8.90114C9.51143 9.99308 10.8516 11.1094 12.7085 11.1094C15.5035 11.1094 17.7774 8.86498 17.7774 6.10626C17.7774 3.39484 15.5808 1.18045 12.8518 1.10525C12.5999 0.458894 11.9653 0 11.2217 0Z" fill="url(#paint0_linear_1954_13409)"/>
<path fill-rule="evenodd" clip-rule="evenodd" d="M8.29511 9.87366C8.11149 9.10888 7.40843 8.53921 6.56847 8.53921C5.80044 8.53921 5.14662 9.01539 4.89984 9.68161C2.88067 9.55606 1.27726 7.91394 1.27726 5.91311C1.27726 3.83076 3.01394 2.13661 5.1486 2.13661C6.03867 2.13661 6.80419 2.44209 7.63076 3.12721C8.43019 3.78977 9.17316 4.71326 10.0334 5.78258C10.2869 6.09764 10.5468 6.45365 10.8183 6.79857C11.1279 7.30448 11.6945 7.64352 12.3424 7.64352C13.322 7.64352 14.1162 6.86882 14.1162 5.91311C14.1162 4.95739 13.322 4.18265 12.3424 4.18265C11.7631 4.18265 11.2488 4.45367 10.925 4.87266C9.19272 2.72081 7.66683 0.890625 5.1486 0.890625C2.30969 0.890625 0 3.14371 0 5.91311C0 8.61071 2.19156 10.8181 4.92895 10.9307C5.1952 11.5584 5.82885 12 6.56847 12C7.54813 12 8.34233 11.2253 8.34233 10.2696C8.34233 10.1379 8.32674 10.0097 8.29811 9.88634C8.2996 9.88522 8.30115 9.88419 8.3026 9.88307L8.29511 9.87366Z" fill="url(#paint1_linear_1954_13409)"/>
<path fill-rule="evenodd" clip-rule="evenodd" d="M10.9739 4.8842C10.9739 4.8842 7.48715 1.86435 4.8302 2.15497C2.17325 2.44559 1.19812 4.53955 1.19812 6.70702C1.19812 8.87449 2.51026 10.2855 2.51026 10.2855C2.51026 10.2855 0.11539 8.67888 0.00465076 6.01846C-0.106088 3.35804 1.76821 1.18767 4.8302 0.877701C7.89218 0.567734 10.9739 4.8842 10.9739 4.8842Z" fill="#33BCF5"/>
<path fill-rule="evenodd" clip-rule="evenodd" d="M6.80341 7.1158C6.80341 7.1158 10.4303 10.0695 12.9471 9.7934C15.464 9.51732 16.4705 7.45355 16.4705 5.28608C16.4705 3.11861 15.2671 1.71449 15.2671 1.71449C15.2671 1.71449 17.662 3.32112 17.7727 5.98154C17.8834 8.64196 16.0091 10.8123 12.9471 11.1223C9.88516 11.4323 6.80341 7.1158 6.80341 7.1158Z" fill="#33BCF5"/>
<defs>
<linearGradient id="paint0_linear_1954_13409" x1="19.128" y1="4.81384" x2="8.10889" y2="-2.48377" gradientUnits="userSpaceOnUse">
<stop stop-color="#FFC41E"/>
<stop offset="0.488542" stop-color="#FF1C89"/>
<stop offset="1" stop-color="#5E5FFF"/>
<stop offset="1" stop-color="#5E5FFF"/>
</linearGradient>
<linearGradient id="paint1_linear_1954_13409" x1="15.4668" y1="5.70446" x2="4.44774" y2="-1.59313" gradientUnits="userSpaceOnUse">
<stop stop-color="#FFC41E"/>
<stop offset="0.488542" stop-color="#FF1C89"/>
<stop offset="1" stop-color="#5E5FFF"/>
<stop offset="1" stop-color="#5E5FFF"/>
</linearGradient>
</defs>
</svg>
