<svg width="22" height="36" viewBox="0 0 22 36" fill="none" xmlns="http://www.w3.org/2000/svg">
<path fill-rule="evenodd" clip-rule="evenodd" d="M17.4802 0.800049H4.5202C2.13433 0.800049 0.200195 2.67211 0.200195 4.98142V31.0187C0.200195 33.328 2.13433 35.2001 4.5202 35.2001H17.4802C19.8661 35.2001 21.8002 33.328 21.8002 31.0187V4.98142C21.8002 2.67211 19.8661 0.800049 17.4802 0.800049ZM7.0002 32.6C7.0002 32.2687 7.26882 32 7.6002 32H14.0002C14.3316 32 14.6002 32.2687 14.6002 32.6C14.6002 32.9314 14.3316 33.2001 14.0002 33.2001H7.6002C7.26882 33.2001 7.0002 32.9314 7.0002 32.6ZM16.4135 5.20005H5.58686C3.93737 5.20005 2.6002 6.52582 2.6002 8.16124V27.0389C2.6002 28.6743 3.93737 30 5.58686 30H16.4135C18.063 30 19.4002 28.6743 19.4002 27.0389V8.16124C19.4002 6.52582 18.063 5.20005 16.4135 5.20005Z" fill="#9C9CA4"/>
</svg>
