<svg width="28" height="28" viewBox="0 0 28 28" fill="none" xmlns="http://www.w3.org/2000/svg">
<path fill-rule="evenodd" clip-rule="evenodd" d="M2.15385 0H10.7692C11.9538 0 12.9231 0.968067 12.9231 2.15126V10.7563C12.9231 11.9395 11.9538 12.9076 10.7692 12.9076H2.15385C0.969231 12.9076 0 11.9395 0 10.7563V2.15126C0 0.968067 0.969231 0 2.15385 0ZM8.07692 8.60504C8.37308 8.60504 8.61539 8.36303 8.61539 8.06723V4.84034C8.61539 4.54454 8.37308 4.30252 8.07692 4.30252H4.84615C4.55 4.30252 4.30769 4.54454 4.30769 4.84034V8.06723C4.30769 8.36303 4.55 8.60504 4.84615 8.60504H8.07692ZM25.8462 0H17.2308C16.0462 0 15.0769 0.968067 15.0769 2.15126V10.7563C15.0769 11.9395 16.0462 12.9076 17.2308 12.9076H25.8462C27.0308 12.9076 28 11.9395 28 10.7563V2.15126C28 0.968067 27.0308 0 25.8462 0ZM23.1538 8.60504C23.45 8.60504 23.6923 8.36303 23.6923 8.06723V4.84034C23.6923 4.54454 23.45 4.30252 23.1538 4.30252H19.9231C19.6269 4.30252 19.3846 4.54454 19.3846 4.84034V8.06723C19.3846 8.36303 19.6269 8.60504 19.9231 8.60504H23.1538ZM10.7692 15.0588H2.15385C0.969231 15.0588 0 16.0269 0 17.2101V25.8151C0 26.9983 0.969231 27.9664 2.15385 27.9664H10.7692C11.9538 27.9664 12.9231 26.9983 12.9231 25.8151V17.2101C12.9231 16.0269 11.9538 15.0588 10.7692 15.0588ZM8.07692 23.6639C8.37308 23.6639 8.61539 23.4219 8.61539 23.1261V19.8992C8.61539 19.6034 8.37308 19.3613 8.07692 19.3613H4.84615C4.55 19.3613 4.30769 19.6034 4.30769 19.8992V23.1261C4.30769 23.4219 4.55 23.6639 4.84615 23.6639H8.07692ZM28 21.479C28 20.8874 27.5154 20.4034 26.9231 20.4034H22.6154V22.0504C22.6154 22.3475 22.3743 22.5882 22.0769 22.5882H20.4279V26.9244C20.4279 27.516 20.9125 28 21.5048 28H26.9231C27.5154 28 28 27.516 28 26.9244V21.479ZM19.3846 14.9916C19.9769 14.9916 20.4615 15.4756 20.4615 16.0672V19.3613C20.4615 19.9529 19.9769 20.437 19.3846 20.437H16.1202C15.5279 20.437 15.0433 19.9529 15.0433 19.3613V16.0672C15.0433 15.4756 15.5279 14.9916 16.1202 14.9916H19.3846ZM17.7692 24.7395H15.6154C15.318 24.7395 15.0769 24.9803 15.0769 25.2773V27.4286C15.0769 27.7256 15.318 27.9664 15.6154 27.9664H17.7692C18.0666 27.9664 18.3077 27.7256 18.3077 27.4286V25.2773C18.3077 24.9803 18.0666 24.7395 17.7692 24.7395ZM25.3077 15.0588H27.4615C27.7589 15.0588 28 15.2996 28 15.5966V17.7479C28 18.0449 27.7589 18.2857 27.4615 18.2857H25.3077C25.0103 18.2857 24.7692 18.0449 24.7692 17.7479V15.5966C24.7692 15.2996 25.0103 15.0588 25.3077 15.0588Z" fill="black"/>
</svg>
