<svg width="18" height="27" viewBox="0 0 18 27" fill="none" xmlns="http://www.w3.org/2000/svg">
<g clip-path="url(#clip0)">
<path d="M3.36569 0.413793C3.36569 0.185261 3.54471 0 3.76554 0H5.59153C5.81236 0 5.99138 0.185261 5.99138 0.413793V6.66207H3.36569V0.413793Z" fill="white"/>
<path d="M11.9488 0.413793C11.9488 0.185261 12.1278 0 12.3487 0H14.1747C14.3955 0 14.5745 0.185261 14.5745 0.413793V6.66207H11.9488V0.413793Z" fill="white"/>
<path d="M0 7.75317C0 7.15214 0.470772 6.66498 1.0515 6.66498H16.9423C17.523 6.66498 17.9938 7.15214 17.9938 7.75317V13.1735C17.9938 18.3157 13.9658 22.4841 8.99687 22.4841C4.02805 22.4841 0 18.3157 0 13.1735V7.75317Z" fill="url(#paint0_linear)"/>
<path d="M5.9934 21.6952H12.0001V22.4706C12.0001 23.5974 11.1174 24.5108 10.0285 24.5108H7.96497C6.8761 24.5108 5.9934 23.5974 5.9934 22.4706V21.6952Z" fill="url(#paint1_linear)"/>
<path d="M6.96617 24.1844H11.0276V25.6399C11.0276 26.3911 10.4392 27.0001 9.71322 27.0001H8.28055C7.55469 27.0001 6.96617 26.3911 6.96617 25.6399V24.1844Z" fill="url(#paint2_linear)"/>
<path fill-rule="evenodd" clip-rule="evenodd" d="M17.2814 16.8107C15.8952 11.574 11.2636 7.72583 5.76353 7.72583C3.67346 7.72583 1.70881 8.28155 0 9.25797V13.1734C0 17.2256 2.50147 20.6732 5.99355 21.9527V22.4705C5.99355 23.22 6.38414 23.8752 6.96615 24.2298V25.6397C6.96615 26.3909 7.55467 26.9999 8.28053 26.9999H9.7132C10.4391 26.9999 11.0276 26.3909 11.0276 25.6397V24.2298C11.6096 23.8752 12.0002 23.22 12.0002 22.4705V21.9527C14.3801 21.0807 16.3 19.2017 17.2814 16.8107Z" fill="url(#paint3_linear)"/>
<path fill-rule="evenodd" clip-rule="evenodd" d="M15.1303 19.9854C14.6896 14.7392 10.4347 10.6232 5.25093 10.6232C3.32256 10.6232 1.52274 11.1928 0 12.1783V13.1736C0 17.2258 2.50147 20.6734 5.99355 21.9528V22.4706C5.99355 23.2201 6.38414 23.8753 6.96615 24.23V25.6399C6.96615 26.3911 7.55467 27.0001 8.28053 27.0001H9.7132C10.4391 27.0001 11.0276 26.3911 11.0276 25.6399V24.23C11.6096 23.8753 12.0002 23.2201 12.0002 22.4706V21.9528C13.1748 21.5225 14.2373 20.8468 15.1303 19.9854Z" fill="url(#paint4_linear)"/>
<path fill-rule="evenodd" clip-rule="evenodd" d="M12.01 21.951C11.8232 17.6755 8.41456 14.2686 4.23699 14.2686C2.78504 14.2686 1.42596 14.6801 0.262758 15.3967C0.986029 18.452 3.16642 20.9153 5.99825 21.9528V22.4706C5.99825 23.2201 6.38885 23.8753 6.97089 24.23V25.6399C6.97089 26.3911 7.55934 27.0001 8.28528 27.0001H9.71795C10.4439 27.0001 11.0323 26.3911 11.0323 25.6399V24.23C11.6144 23.8753 12.005 23.2201 12.005 22.4706V21.9528C12.0066 21.9522 12.0084 21.9516 12.01 21.951Z" fill="url(#paint5_linear)"/>
</g>
<defs>
<linearGradient id="paint0_linear" x1="12.0068" y1="12.5274" x2="18.7021" y2="6.05116" gradientUnits="userSpaceOnUse">
<stop stop-color="#46FF47"/>
<stop offset="1" stop-color="#9CFF9D"/>
</linearGradient>
<linearGradient id="paint1_linear" x1="12.0067" y1="12.5275" x2="18.7019" y2="6.05118" gradientUnits="userSpaceOnUse">
<stop stop-color="#46FF47"/>
<stop offset="1" stop-color="#9CFF9D"/>
</linearGradient>
<linearGradient id="paint2_linear" x1="12.0068" y1="12.5276" x2="18.7021" y2="6.05128" gradientUnits="userSpaceOnUse">
<stop stop-color="#46FF47"/>
<stop offset="1" stop-color="#9CFF9D"/>
</linearGradient>
<linearGradient id="paint3_linear" x1="10.4427" y1="13.8127" x2="13.7708" y2="9.54251" gradientUnits="userSpaceOnUse">
<stop stop-color="#10D9ED"/>
<stop offset="1" stop-color="#10D9ED" stop-opacity="0.3"/>
</linearGradient>
<linearGradient id="paint4_linear" x1="9.73293" y1="15.3703" x2="12.0141" y2="11.1224" gradientUnits="userSpaceOnUse">
<stop stop-color="#FA51D3"/>
<stop offset="0.958774" stop-color="#FA51D3" stop-opacity="0"/>
</linearGradient>
<linearGradient id="paint5_linear" x1="6.74918" y1="21.7089" x2="10.1797" y2="13.233" gradientUnits="userSpaceOnUse">
<stop stop-color="#FFE700"/>
<stop offset="1" stop-color="#FFE700" stop-opacity="0"/>
</linearGradient>
<clipPath id="clip0">
<rect width="18" height="27" fill="white"/>
</clipPath>
</defs>
</svg>
