<?xml version="1.0" standalone="no"?><!DOCTYPE svg PUBLIC "-//W3C//DTD SVG 1.1//EN" "http://www.w3.org/Graphics/SVG/1.1/DTD/svg11.dtd"><svg t="1640106586053" class="icon" viewBox="0 0 1024 1024" version="1.1" xmlns="http://www.w3.org/2000/svg" p-id="2393" xmlns:xlink="http://www.w3.org/1999/xlink" width="200" height="200"><defs><style type="text/css">@font-face { font-family: element-icons; src: url("chrome-extension://moombeodfomdpjnpocobemoiaemednkg/fonts/element-icons.woff") format("woff"), url("chrome-extension://moombeodfomdpjnpocobemoiaemednkg/fonts/element-icons.ttf ") format("truetype"); }
</style></defs><path d="M592.09955555 780.74311111H369.43644445c-63.14666667 0-114.688-51.65511111-114.688-114.688v-110.93333333h452.15288888v110.93333333c-0.11377778 63.03288889-51.65511111 114.688-114.80177778 114.688z" fill="#A5E8D0" p-id="2394"></path><path d="M782.79111111 395.03644445c-4.20977778 0-8.53333333 0.34133333-12.74311111 0.91022222 0-12.17422222-9.89866667-22.07288889-22.07288889-22.07288889H201.04533333c-12.17422222 0-22.07288889 9.89866667-22.07288888 22.07288889v161.56444444c0 149.84533333 121.51466667 271.36 271.36 271.36h48.128c104.78933333 0 195.69777778-59.73333333 240.86755555-147.00088889 13.53955555 6.59911111 28.21688889 10.01244445 43.23555555 10.01244445 66.44622222 0 118.44266667-65.19466667 118.44266667-148.48S849.23733333 395.03644445 782.79111111 395.03644445zM694.49955555 557.51111111c0 108.20266667-87.72266667 195.92533333-195.92533333 195.92533334h-48.128c-108.20266667 0-195.92533333-87.72266667-195.92533333-195.92533334v-108.08888889h439.86488889v108.08888889z m88.29155556 59.05066667c-6.94044445 0-12.97066667-3.41333333-17.74933333-7.50933333 3.18577778-16.72533333 5.00622222-33.90577778 5.00622222-51.42755556V474.45333333c4.32355555-2.50311111 8.41955555-3.86844445 12.74311111-3.86844444 20.25244445 0 43.008 31.17511111 43.008 72.93155556s-22.75555555 73.04533333-43.008 73.04533333zM762.19733333 871.08266667H200.59022222c-16.384 0-31.97155555 9.78488889-37.09155555 25.37244444-8.53333333 25.94133333 10.92266667 50.176 35.72622222 50.176h561.60711111c16.384 0 31.97155555-9.78488889 37.09155555-25.37244444 8.53333333-25.94133333-10.92266667-50.176-35.72622222-50.176zM460.8 321.87733333c-14.44977778-12.74311111-18.65955555-34.58844445-11.03644445-53.13422222 6.82666667-16.49777778 10.69511111-34.01955555 4.20977778-42.78044444-24.34844445-32.768-30.15111111-72.93155555-28.21688888-107.29244445 1.70666667-29.58222222 28.78577778-49.03822222 53.81688888-38.22933333 16.04266667 6.94044445 26.28266667 24.576 25.03111112 43.69066666-1.024 15.24622222 0.45511111 33.22311111 10.35377777 46.53511112 30.94755555 41.64266667 23.32444445 93.98044445 6.37155556 135.28177778-10.69511111 25.71377778-40.39111111 33.56444445-60.52977778 15.92888888zM318.12266667 325.29066667c-9.32977778-8.192-11.94666667-22.18666667-7.05422222-34.13333334 4.32355555-10.58133333 6.82666667-21.84533333 2.61688888-27.53422222-15.58755555-21.04888889-19.34222222-46.76266667-18.09066666-68.83555556 1.13777778-19.00088889 18.432-31.40266667 34.47466666-24.576 10.35377778 4.43733333 16.83911111 15.81511111 16.04266667 27.98933334-0.68266667 9.78488889 0.34133333 21.27644445 6.59911111 29.80977778 19.91111111 26.73777778 15.01866667 60.30222222 4.096 86.81244444-6.71288889 16.72533333-25.82755555 21.73155555-38.68444444 10.46755556zM617.81333333 325.29066667c-9.32977778-8.192-11.94666667-22.18666667-7.05422222-34.13333334 4.32355555-10.58133333 6.82666667-21.84533333 2.61688889-27.53422222-15.58755555-21.04888889-19.34222222-46.76266667-18.09066667-68.83555556 1.13777778-19.00088889 18.432-31.40266667 34.47466667-24.576 10.35377778 4.43733333 16.83911111 15.81511111 16.04266667 27.98933334-0.68266667 9.78488889 0.34133333 21.27644445 6.59911111 29.80977778 19.91111111 26.73777778 15.01866667 60.30222222 4.096 86.81244444-6.71288889 16.72533333-25.82755555 21.73155555-38.68444445 10.46755556z" fill="#2A2A2A" p-id="2395"></path></svg>