<svg width="5886" height="2814" viewBox="0 0 5886 2814" fill="none" xmlns="http://www.w3.org/2000/svg">
<path d="M2538.07 2315.78H2747.68V1744.47H2760.3C2798.15 1813.16 2875.26 1933.03 3071.55 1933.03C3332.32 1933.03 3521.6 1724.14 3521.6 1375.74C3521.6 1026.65 3329.52 821.257 3069.45 821.257C2869.66 821.257 2797.45 943.231 2760.3 1009.83H2742.77V835.277H2538.07V2315.78ZM2743.47 1373.64C2743.47 1148.62 2841.61 999.312 3024.58 999.312C3214.55 999.312 3309.89 1159.84 3309.89 1373.64C3309.89 1589.55 3211.75 1754.28 3024.58 1754.28C2844.42 1754.28 2743.47 1600.06 2743.47 1373.64ZM3808.12 476.366H3598.51V1912H3808.12V476.366ZM4614.28 1465.47C4614.98 1648.43 4478.96 1735.36 4361.22 1735.36C4231.5 1735.36 4141.77 1641.42 4141.77 1494.91V835.277H3932.18V1520.15C3932.18 1787.23 4078.69 1926.02 4285.5 1926.02C4447.42 1926.02 4557.5 1840.5 4607.27 1725.54H4618.46V1912H4824.56V835.277H4614.28V1465.47ZM5399.72 2338.21C5673.83 2338.21 5885.53 2212.73 5885.53 1935.84V835.277H5680.13V1009.83H5664.71C5627.58 943.231 5553.27 821.257 5352.76 821.257C5092.71 821.257 4901.32 1026.65 4901.32 1369.44C4901.32 1712.92 5096.89 1895.88 5351.35 1895.88C5549.04 1895.88 5625.47 1784.42 5663.3 1715.73H5676.65V1927.43C5676.65 2096.37 5560.98 2169.27 5401.83 2169.27C5227.27 2169.27 5159.31 2081.65 5122.13 2019.96L4941.97 2094.26C4998.75 2226.05 5142.48 2338.21 5399.72 2338.21ZM5397.65 1722.04C5210.44 1722.04 5113.01 1578.33 5113.01 1366.63C5113.01 1159.84 5208.38 999.312 5397.65 999.312C5580.58 999.312 5678.72 1148.62 5678.72 1366.63C5678.72 1588.85 5578.51 1722.04 5397.65 1722.04Z" fill="#111827"/>
<path d="M362.929 60C362.929 26.8629 389.792 0 422.929 0H586.086C619.223 0 646.086 26.8629 646.086 60V694.237H362.929V60Z" fill="#031514"/>
<path d="M1288.58 60C1288.58 26.8629 1315.44 0 1348.58 0H1511.73C1544.87 0 1571.73 26.8629 1571.73 60V694.237H1288.58V60Z" fill="#031514"/>
<path d="M0 807.933C0 745.307 50.7684 694.539 113.394 694.539H1827.07C1889.69 694.539 1940.46 745.307 1940.46 807.933V1372.78C1940.46 1908.62 1506.07 2343.01 970.231 2343.01C434.387 2343.01 0 1908.62 0 1372.78V807.933Z" fill="url(#paint0_linear)"/>
<path d="M646.348 2260.8H1294.11V2341.59C1294.11 2459.02 1198.92 2554.21 1081.5 2554.21H858.963C741.539 2554.21 646.348 2459.02 646.348 2341.59V2260.8Z" fill="url(#paint1_linear)"/>
<path d="M751.238 2520.19H1189.22V2671.85C1189.22 2750.14 1125.76 2813.6 1047.48 2813.6H892.981C814.698 2813.6 751.238 2750.14 751.238 2671.85V2520.19Z" fill="url(#paint2_linear)"/>
<path fill-rule="evenodd" clip-rule="evenodd" d="M1863.64 1751.8C1714.15 1206.11 1214.68 805.098 621.543 805.098C396.148 805.098 184.279 863.005 0 964.755V1372.78C0 1795.05 269.76 2154.31 646.348 2287.63V2341.59C646.348 2419.7 688.47 2487.98 751.238 2524.94V2671.85C751.238 2750.14 814.698 2813.6 892.981 2813.6H1047.48C1125.76 2813.6 1189.22 2750.14 1189.22 2671.85V2524.94C1251.99 2487.98 1294.11 2419.7 1294.11 2341.59V2287.63C1550.76 2196.77 1757.8 2000.97 1863.64 1751.8Z" fill="url(#paint3_linear)"/>
<path fill-rule="evenodd" clip-rule="evenodd" d="M1631.65 2082.62C1584.13 1535.93 1125.28 1107.01 566.263 1107.01C358.307 1107.01 164.213 1166.37 0 1269.06V1372.78C0 1795.05 269.76 2154.31 646.348 2287.64V2341.59C646.348 2419.7 688.47 2487.98 751.238 2524.94V2671.85C751.238 2750.14 814.698 2813.6 892.981 2813.6H1047.48C1125.76 2813.6 1189.22 2750.14 1189.22 2671.85V2524.94C1251.99 2487.98 1294.11 2419.7 1294.11 2341.59V2287.64C1420.78 2242.79 1535.36 2172.39 1631.65 2082.62Z" fill="url(#paint4_linear)"/>
<path fill-rule="evenodd" clip-rule="evenodd" d="M1295.18 2287.44C1275.03 1841.91 907.442 1486.88 456.932 1486.88C300.353 1486.88 153.79 1529.77 28.3491 1604.44C106.347 1922.82 341.482 2179.52 646.869 2287.64V2341.59C646.869 2419.7 688.99 2487.98 751.758 2524.94V2671.85C751.758 2750.14 815.219 2813.6 893.501 2813.6H1048C1126.28 2813.6 1189.74 2750.14 1189.74 2671.85V2524.94C1252.51 2487.98 1294.63 2419.7 1294.63 2341.59V2287.64C1294.82 2287.57 1295 2287.51 1295.18 2287.44Z" fill="url(#paint5_linear)"/>
<g filter="url(#filter0_i)">
<path d="M487.257 1682.09C480.919 1680.85 475.079 1685.87 475.543 1692.32C491.962 1920.23 707.814 2100.63 971.682 2100.63C1234.94 2100.63 1450.4 1921.07 1467.7 1693.9C1468.19 1687.46 1462.37 1682.41 1456.03 1683.63C1302.66 1713.12 1137.83 1741.65 971.682 1741.65C802.603 1741.65 642.641 1712.56 487.257 1682.09Z" fill="url(#paint6_linear)"/>
</g>
<path d="M506.023 1717.92C514.562 1790.06 724.726 1878.09 974.869 1878.09C1224.45 1878.09 1430.72 1789.83 1440.11 1717.92C1294.09 1727.27 1282.07 1773.78 974.869 1773.78C652.019 1773.78 654.283 1727.59 506.023 1717.92Z" fill="url(#paint7_linear)"/>
<path d="M934.273 1246.86C861.275 1380.86 747.172 1516.28 615.351 1512.74C480.705 1512.74 371.553 1393.7 371.553 1246.86C371.553 1100.02 480.705 980.986 615.351 980.986C749.997 980.986 849.227 1098.68 934.273 1246.86Z" fill="url(#paint8_linear)"/>
<path d="M1006.14 1247.25C1079.14 1378.59 1193.24 1516.21 1325.06 1512.74C1459.71 1512.74 1568.86 1391.17 1568.86 1247.25C1568.86 1103.33 1460.42 980.986 1325.77 980.986C1191.12 980.986 1091.19 1102.01 1006.14 1247.25Z" fill="url(#paint9_linear)"/>
<circle cx="710.437" cy="1291.58" r="64.087" fill="#031514"/>
<circle cx="732.827" cy="1320.15" r="21.6197" fill="white"/>
<circle cx="1230.63" cy="1291.58" r="64.087" fill="#031514"/>
<circle cx="1253.02" cy="1320.15" r="21.6197" fill="white"/>
<path d="M935.62 1249.47L372.971 1278.52C371.756 1267.89 370.85 1262.93 370.848 1255.14C369.431 1098.57 479.27 979.55 617.45 979.55C755.631 979.55 863.335 1116.28 934.203 1245.93C933.607 1247.02 936.221 1248.38 935.62 1249.47Z" fill="#031514"/>
<path d="M1004.79 1249.47L1568.02 1278.52C1569.23 1267.89 1569.42 1262.93 1569.42 1255.14C1574.4 1101.4 1461.03 979.55 1322.88 979.55C1184.74 979.55 1077.06 1116.28 1006.21 1245.93C1006.8 1247.02 1004.19 1248.38 1004.79 1249.47Z" fill="#031514"/>
<g filter="url(#filter1_i)">
<path d="M1321.76 914.149C1150.23 914.149 1025.37 1085.43 970.925 1176.84C916.476 1085.43 791.624 914.149 620.092 914.149C446.961 914.149 306.154 1063.27 306.154 1246.53C306.154 1429.8 446.961 1578.92 620.092 1578.92C791.603 1578.92 916.476 1407.64 970.925 1316.21C1025.37 1407.64 1150.23 1578.92 1321.76 1578.92C1494.89 1578.92 1635.7 1429.8 1635.7 1246.53C1635.7 1063.27 1494.89 914.149 1321.76 914.149ZM620.092 1512.44C483.648 1512.44 372.631 1393.16 372.631 1246.53C372.631 1099.91 483.648 980.627 620.092 980.627C782.192 980.627 903.596 1189.63 933.656 1246.53C903.596 1303.44 782.213 1512.44 620.092 1512.44ZM1321.76 1512.44C1159.66 1512.44 1038.25 1303.44 1008.19 1246.53C1038.25 1189.63 1159.66 980.627 1321.76 980.627C1458.2 980.627 1569.22 1099.91 1569.22 1246.53C1569.22 1393.16 1458.2 1512.44 1321.76 1512.44Z" fill="url(#paint10_linear)"/>
</g>
<defs>
<filter id="filter0_i" x="475.518" y="1681.9" width="992.213" height="418.727" filterUnits="userSpaceOnUse" color-interpolation-filters="sRGB">
<feFlood flood-opacity="0" result="BackgroundImageFix"/>
<feBlend mode="normal" in="SourceGraphic" in2="BackgroundImageFix" result="shape"/>
<feColorMatrix in="SourceAlpha" type="matrix" values="0 0 0 0 0 0 0 0 0 0 0 0 0 0 0 0 0 0 127 0" result="hardAlpha"/>
<feOffset/>
<feGaussianBlur stdDeviation="17.5"/>
<feComposite in2="hardAlpha" operator="arithmetic" k2="-1" k3="1"/>
<feColorMatrix type="matrix" values="0 0 0 0 0 0 0 0 0 0 0 0 0 0 0 0 0 0 0.64 0"/>
<feBlend mode="normal" in2="shape" result="effect1_innerShadow"/>
</filter>
<filter id="filter1_i" x="306.154" y="914.149" width="1329.54" height="664.771" filterUnits="userSpaceOnUse" color-interpolation-filters="sRGB">
<feFlood flood-opacity="0" result="BackgroundImageFix"/>
<feBlend mode="normal" in="SourceGraphic" in2="BackgroundImageFix" result="shape"/>
<feColorMatrix in="SourceAlpha" type="matrix" values="0 0 0 0 0 0 0 0 0 0 0 0 0 0 0 0 0 0 127 0" result="hardAlpha"/>
<feOffset/>
<feGaussianBlur stdDeviation="17.5"/>
<feComposite in2="hardAlpha" operator="arithmetic" k2="-1" k3="1"/>
<feColorMatrix type="matrix" values="0 0 0 0 0 0 0 0 0 0 0 0 0 0 0 0 0 0 0.64 0"/>
<feBlend mode="normal" in2="shape" result="effect1_innerShadow"/>
</filter>
<linearGradient id="paint0_linear" x1="1294.82" y1="1305.45" x2="1992.91" y2="606.659" gradientUnits="userSpaceOnUse">
<stop stop-color="#46FF47"/>
<stop offset="1" stop-color="#9CFF9D"/>
</linearGradient>
<linearGradient id="paint1_linear" x1="1294.82" y1="1305.45" x2="1992.91" y2="606.659" gradientUnits="userSpaceOnUse">
<stop stop-color="#46FF47"/>
<stop offset="1" stop-color="#9CFF9D"/>
</linearGradient>
<linearGradient id="paint2_linear" x1="1294.82" y1="1305.45" x2="1992.91" y2="606.659" gradientUnits="userSpaceOnUse">
<stop stop-color="#46FF47"/>
<stop offset="1" stop-color="#9CFF9D"/>
</linearGradient>
<linearGradient id="paint3_linear" x1="1126.15" y1="1439.4" x2="1469.88" y2="982.985" gradientUnits="userSpaceOnUse">
<stop stop-color="#10D9ED"/>
<stop offset="1" stop-color="#10D9ED" stop-opacity="0.3"/>
</linearGradient>
<linearGradient id="paint4_linear" x1="1049.61" y1="1601.69" x2="1282.77" y2="1152.37" gradientUnits="userSpaceOnUse">
<stop stop-color="#FA51D3"/>
<stop offset="0.958774" stop-color="#FA51D3" stop-opacity="0"/>
</linearGradient>
<linearGradient id="paint5_linear" x1="727.851" y1="2262.22" x2="1076.54" y2="1370.65" gradientUnits="userSpaceOnUse">
<stop stop-color="#FFE700"/>
<stop offset="1" stop-color="#FFE700" stop-opacity="0"/>
</linearGradient>
<linearGradient id="paint6_linear" x1="971.649" y1="1679.65" x2="971.649" y2="2100.63" gradientUnits="userSpaceOnUse">
<stop/>
<stop offset="1" stop-opacity="0.65"/>
</linearGradient>
<linearGradient id="paint7_linear" x1="1107.72" y1="1740.6" x2="1107.72" y2="1854" gradientUnits="userSpaceOnUse">
<stop offset="0.75" stop-color="white"/>
<stop offset="1" stop-color="#DEDEDF"/>
</linearGradient>
<linearGradient id="paint8_linear" x1="734.034" y1="1056.29" x2="734.033" y2="1432.8" gradientUnits="userSpaceOnUse">
<stop offset="0.75" stop-color="white"/>
<stop offset="1" stop-color="#DEDEDF"/>
</linearGradient>
<linearGradient id="paint9_linear" x1="1206.38" y1="1056.29" x2="1206.38" y2="1432.8" gradientUnits="userSpaceOnUse">
<stop offset="0.75" stop-color="white"/>
<stop offset="1" stop-color="#DEDEDF"/>
</linearGradient>
<linearGradient id="paint10_linear" x1="970.925" y1="914.149" x2="970.925" y2="1578.92" gradientUnits="userSpaceOnUse">
<stop/>
<stop offset="1" stop-opacity="0.65"/>
</linearGradient>
</defs>
</svg>
